<?xml version="1.0" encoding="UTF-8" standalone="no"?>
<svg
   xmlns:dc="http://purl.org/dc/elements/1.1/"
   xmlns:cc="http://creativecommons.org/ns#"
   xmlns:rdf="http://www.w3.org/1999/02/22-rdf-syntax-ns#"
   xmlns:svg="http://www.w3.org/2000/svg"
   xmlns="http://www.w3.org/2000/svg"
   xmlns:sodipodi="http://sodipodi.sourceforge.net/DTD/sodipodi-0.dtd"
   xmlns:inkscape="http://www.inkscape.org/namespaces/inkscape"
   viewBox="0 0 618.6331 591.9876"
   enable-background="new 0 0 50 50"
   version="1.1"
   id="svg4"
   sodipodi:docname="speaker.svg"
   inkscape:version="0.92.3 (2405546, 2018-03-11)"
   width="163.68001mm"
   height="156.63005mm">
  <metadata
     id="metadata10">
    <rdf:RDF>
      <cc:Work
         rdf:about="">
        <dc:format>image/svg+xml</dc:format>
        <dc:type
           rdf:resource="http://purl.org/dc/dcmitype/StillImage" />
        <dc:title></dc:title>
      </cc:Work>
    </rdf:RDF>
  </metadata>
  <defs
     id="defs8" />
  <sodipodi:namedview
     pagecolor="#ffffff"
     bordercolor="#666666"
     borderopacity="1"
     objecttolerance="10"
     gridtolerance="10"
     guidetolerance="10"
     inkscape:pageopacity="0"
     inkscape:pageshadow="2"
     inkscape:window-width="1920"
     inkscape:window-height="1016"
     id="namedview6"
     showgrid="false"
     inkscape:zoom="0.834386"
     inkscape:cx="-70.106747"
     inkscape:cy="232.79814"
     inkscape:window-x="0"
     inkscape:window-y="27"
     inkscape:window-maximized="1"
     inkscape:current-layer="svg4"
     units="mm"
     fit-margin-top="0"
     fit-margin-left="0"
     fit-margin-right="0"
     fit-margin-bottom="0" />
  <path
     style="line-height:normal;font-family:'Bitstream Vera Sans';-inkscape-font-specification:'Bitstream Vera Sans';text-indent:0;text-align:start;text-transform:none;overflow:visible;stroke-width:13.44854546;enable-background:accumulate"
     d="M 325.28669,9.7512834e-4 C 321.09601,0.03187513 316.77089,0.79922513 312.67868,2.1023151 c -8.0085,2.55015 -15.66723,7.40708 -22.27415,14.2890699 -0.14511,0.15117 -0.27623,0.26724 -0.42027,0.42027 L 130.28279,175.25233 H 40.345648 C 18.216678,175.25233 0,193.46899 0,215.59797 v 161.3825 c 0,22.129 18.216678,40.3457 40.345648,40.3457 h 91.618212 l 157.17987,157.60014 c 15.19521,15.1952 34.58048,21.3774 50.43204,13.8688 15.85156,-7.5086 23.53496,-25.4703 23.53496,-46.2294 V 44.969545 c 0,-20.06074 -9.87312,-37.1598799 -25.63629,-42.8672299 -3.9408,-1.42683997 -7.99706,-2.13227997 -12.18775,-2.10133997166 z M 324.86643,26.898065 c 1.2748,-0.0116 2.42783,0.082 3.36213,0.42027 3.73722,1.35313 7.98508,5.43545 7.98508,17.65121 V 542.56571 c 0,14.2072 -5.09273,20.2848 -8.40535,21.8539 -3.31261,1.5692 -9.39553,1.5314 -19.75255,-8.8256 L 138.68814,386.22637 c 0.19191,0.1919 -4.20268,-7.877 -4.20268,-13.4485 v -154.6583 c 0,-1.7931 0.60694,-5.4214 1.68107,-8.4053 1.07414,-2.984 3.14587,-5.2473 2.52161,-4.623 L 309.31655,35.723675 a 13.44989,13.44989 0 0 0 0.42026,-0.42027 c 6.08617,-6.46655 11.3052,-8.37062 15.12962,-8.40534 z m 65.14139,40.7659 v 26.89709 c 111.01162,0 201.72818,90.716555 201.72818,201.728215 0,111.0116 -90.71656,201.72814 -201.72818,201.72814 v 26.8971 c 125.68277,0 228.62527,-102.94254 228.62527,-228.62524 0,-125.6828 -102.9425,-228.625305 -228.62527,-228.625305 z m 0,80.691275 v 26.89709 c 66.63142,0 121.03691,54.40544 121.03691,121.03694 0,66.6314 -54.40549,121.0369 -121.03691,121.0369 v 26.8971 c 81.30257,0 147.934,-66.6315 147.934,-147.934 0,-81.3026 -66.63143,-147.93403 -147.934,-147.93403 z M 40.345648,202.14937 h 70.184592 c -1.72366,5.0302 -2.94187,10.1692 -2.94187,15.9702 v 154.6583 c 0,6.4722 1.02239,12.3491 2.94187,17.6512 H 40.345648 c -7.45783,0 -13.44855,-5.9907 -13.44855,-13.4486 v -161.3825 c 0,-7.4578 5.99072,-13.4486 13.44855,-13.4486 z m 349.662172,26.8971 v 26.8971 c 22.25122,0 40.34564,18.0944 40.34564,40.3457 0,22.2512 -18.09442,40.3456 -40.34564,40.3456 v 26.8971 c 36.92238,0 67.24273,-30.3204 67.24273,-67.2427 0,-36.9224 -30.32035,-67.2428 -67.24273,-67.2428 z"
     overflow="visible"
     id="path2"
     inkscape:connector-curvature="0" />
</svg>
