<?xml version="1.0" standalone="no"?>
<!DOCTYPE svg PUBLIC "-//W3C//DTD SVG 20010904//EN"
 "http://www.w3.org/TR/2001/REC-SVG-20010904/DTD/svg10.dtd">
<svg version="1.0" xmlns="http://www.w3.org/2000/svg"
 width="904.000000pt" height="664.000000pt" viewBox="0 0 904.000000 664.000000"
 preserveAspectRatio="xMidYMid meet">
<metadata>
Created by potrace 1.14, written by Peter Selinger 2001-2017
</metadata>
<g transform="translate(0.000000,664.000000) scale(0.100000,-0.100000)"
fill="#000000" stroke="none">
<path d="M1695 5518 c-108 -14 -146 -33 -244 -123 -48 -44 -98 -118 -124 -183
-16 -39 -17 -127 -17 -1060 0 -964 1 -1019 19 -1057 20 -45 85 -111 152 -155
l44 -30 1836 0 1836 0 46 31 c76 50 134 116 153 173 16 45 17 99 17 472 -1
357 -4 428 -17 468 -9 26 -16 54 -16 62 0 42 -135 186 -209 223 -93 47 -137
54 -286 48 -121 -5 -145 -4 -165 10 -20 14 -22 20 -15 67 11 68 11 139 1 205
l-9 53 77 73 c42 39 76 80 76 89 0 20 -112 136 -132 136 -7 0 -61 -51 -119
-113 l-106 -112 8 -160 c5 -88 10 -175 11 -194 3 -30 -2 -37 -29 -53 -27 -16
-38 -18 -70 -9 -46 13 -186 14 -228 2 -17 -4 -40 -4 -53 0 -19 7 -22 16 -22
56 0 56 -18 89 -80 151 -65 65 -79 69 -215 67 -131 -2 -144 -6 -207 -63 -51
-46 -68 -80 -68 -137 0 -54 -25 -85 -69 -85 -43 0 -74 30 -74 71 1 19 2 224 3
456 3 487 12 439 -109 556 -44 43 -77 67 -93 67 -294 5 -1460 3 -1503 -2z
m1503 -158 c34 -21 59 -67 44 -82 -4 -4 -19 -8 -32 -8 -14 0 -324 1 -690 3
-633 3 -667 3 -710 -15 -57 -24 -136 -108 -150 -158 -7 -25 -10 -246 -8 -632
l3 -593 28 -55 c16 -30 38 -66 50 -80 37 -43 138 -120 165 -127 28 -8 1203
-10 1280 -2 37 3 47 0 63 -20 43 -53 11 -136 -52 -133 -19 1 -412 3 -873 4
l-839 4 -9 24 c-5 14 -6 35 -3 48 3 13 6 382 5 820 0 771 1 797 20 837 30 63
73 108 131 140 72 39 103 40 894 43 636 2 651 2 683 -18z m49 -247 c9 -11 12
-32 8 -58 -11 -80 -13 -400 -3 -437 18 -62 -2 -93 -88 -136 -90 -44 -116 -38
-134 30 -7 24 -25 64 -41 89 -36 56 -36 64 -1 86 46 28 82 66 82 85 0 25 -44
68 -70 68 -12 0 -47 -13 -78 -30 -31 -16 -83 -37 -116 -47 -74 -21 -116 -55
-116 -93 0 -55 40 -72 108 -48 32 12 35 11 58 -15 13 -16 24 -35 24 -44 0 -9
14 -40 30 -70 17 -29 30 -57 30 -63 0 -5 -24 -25 -53 -44 -51 -32 -111 -96
-136 -143 -16 -31 -14 -65 6 -92 9 -14 24 -52 34 -85 20 -71 79 -213 103 -247
24 -35 21 -68 -10 -79 -18 -7 -44 -5 -90 6 -51 13 -71 14 -90 5 -37 -16 -79
-13 -105 8 -22 18 -23 20 -12 102 11 76 10 88 -8 124 -23 48 -103 133 -136
146 -14 5 -156 9 -317 9 -285 0 -293 1 -312 21 -18 20 -19 42 -19 448 0 463 2
477 55 510 24 14 94 16 706 14 640 -1 679 -3 691 -20z m718 -613 c68 -66 32
-147 -54 -121 -48 14 -114 14 -165 0 -76 -21 -125 26 -92 89 31 60 53 69 171
67 105 -1 105 -1 140 -35z m-709 -144 c3 -14 3 -30 -1 -37 -4 -6 -7 -133 -7
-282 1 -181 -2 -275 -10 -284 -7 -9 -36 -13 -88 -13 -96 0 -110 10 -141 105
-12 38 -33 94 -46 123 -12 29 -23 64 -23 79 0 14 -14 52 -32 84 -28 50 -30 61
-20 83 19 42 86 83 165 100 42 10 84 27 102 41 41 34 92 34 101 1z m907 -135
c9 -7 12 -106 12 -372 l0 -362 -27 -20 c-23 -17 -31 -18 -75 -8 -32 8 -146 11
-351 9 -354 -4 -340 -8 -326 89 9 68 8 551 -1 594 -8 37 2 69 25 77 29 11 730
5 743 -7z m893 4 c12 -2 49 -25 84 -50 48 -36 67 -59 88 -103 27 -57 27 -58
24 -257 -2 -119 1 -220 8 -248 8 -37 7 -55 -2 -75 l-13 -27 -468 2 c-369 1
-471 4 -483 14 -13 10 -15 24 -9 64 9 63 8 573 -1 621 -4 25 -2 40 9 52 14 16
47 17 379 15 200 -1 373 -5 384 -8z m-2961 -230 c83 -1 172 2 198 7 55 9 99
-5 131 -41 16 -17 20 -38 21 -108 1 -51 -3 -90 -10 -97 -8 -8 -83 -11 -244
-10 l-232 2 -47 29 c-53 32 -121 124 -122 163 0 14 7 36 16 49 16 22 21 23 78
15 33 -4 129 -9 211 -9z m330 -644 c2692 0 2807 0 2820 -11 42 -35 19 -174
-40 -238 l-33 -37 -1799 -3 c-1262 -1 -1806 1 -1824 9 -42 17 -70 64 -80 137
-17 120 7 158 96 148 28 -3 415 -6 860 -5z"/>
<path d="M1896 4947 c-13 -19 -16 -78 -16 -346 -1 -316 -1 -324 19 -345 20
-20 34 -21 284 -27 301 -6 316 -3 317 63 0 17 -9 34 -26 47 -25 20 -37 21
-208 17 -100 -2 -185 -5 -191 -6 -54 -13 -91 33 -75 91 6 19 10 133 10 255 0
209 -1 223 -21 248 -27 34 -72 35 -93 3z"/>
<path d="M6974 3001 c-11 -5 -175 -8 -365 -7 -353 2 -387 -1 -418 -37 -10 -13
-13 -63 -12 -224 1 -115 4 -240 7 -280 l7 -71 -32 -17 c-26 -13 -39 -14 -64
-6 -19 7 -114 9 -240 7 l-209 -3 -33 36 c-33 35 -35 35 -71 22 l-37 -13 -80
80 c-77 77 -80 82 -81 128 l-1 48 -65 33 c-36 17 -81 35 -100 39 -19 4 -59 15
-89 25 -80 28 -99 25 -147 -22 l-42 -41 -98 -2 -99 -3 -42 45 c-40 43 -43 45
-85 38 -59 -9 -174 -9 -226 0 -42 7 -45 5 -88 -37 l-45 -44 -96 -1 -95 -1 -27
39 c-32 47 -56 54 -130 38 -44 -9 -75 -9 -129 -1 -103 16 -107 15 -154 -32
l-43 -44 -98 2 -98 1 -38 42 c-21 23 -43 42 -49 42 -5 0 -55 -5 -109 -10 -84
-9 -105 -8 -137 5 -48 20 -64 15 -108 -38 l-36 -44 -98 2 -97 1 -36 42 c-38
44 -71 53 -123 33 -13 -5 -70 -5 -133 1 l-110 9 -40 -44 -40 -45 -94 2 -93 2
-37 43 c-36 42 -39 43 -77 36 -21 -4 -66 -6 -98 -6 -44 1 -80 -7 -140 -30 -86
-33 -106 -49 -106 -87 0 -17 -23 -46 -77 -98 -74 -70 -113 -89 -128 -64 -3 6
-19 10 -35 10 -26 0 -36 -10 -83 -82 -30 -46 -64 -105 -75 -131 -12 -26 -30
-60 -42 -74 -30 -38 -25 -57 25 -97 25 -21 45 -44 45 -51 0 -8 -9 -31 -19 -52
-17 -33 -18 -44 -9 -79 14 -52 7 -70 -37 -91 -47 -23 -52 -49 -21 -111 14 -28
26 -60 26 -71 0 -23 60 -141 96 -189 24 -30 30 -33 63 -27 35 6 40 3 114 -69
68 -66 77 -78 77 -111 0 -66 60 -103 259 -161 98 -28 125 -23 155 27 22 38 57
52 93 38 15 -5 50 -7 78 -4 50 7 54 5 83 -27 l32 -33 142 -3 c79 -2 158 -4
177 -4 28 -1 40 6 71 42 l37 43 104 -2 104 -2 34 -41 35 -40 105 6 c65 5 124
3 153 -3 60 -14 92 -2 114 41 9 18 21 36 26 39 13 8 201 5 215 -4 6 -4 17 -23
23 -42 13 -41 40 -51 93 -37 20 6 89 8 155 5 105 -5 120 -4 133 12 56 69 69
78 107 71 20 -3 61 -6 91 -6 50 0 56 -3 91 -41 36 -40 40 -42 85 -37 26 3 61
2 79 -2 17 -5 69 -10 116 -13 l85 -4 48 49 c42 44 51 49 75 42 15 -4 57 -7 93
-5 l67 2 22 -36 23 -37 118 7 c92 6 136 13 192 34 l72 27 5 46 c6 47 23 78 45
78 7 0 41 25 75 56 49 44 67 54 84 49 70 -23 81 -19 115 33 18 28 39 56 48 64
12 10 83 13 312 14 163 1 303 -2 312 -7 9 -5 28 -28 42 -52 33 -55 163 -179
254 -240 83 -56 161 -80 313 -95 149 -16 1022 -18 1133 -3 49 7 98 9 109 5 12
-3 133 -6 269 -7 227 0 251 1 269 18 23 21 28 86 8 103 -16 13 -189 18 -240 7
-48 -10 -80 10 -109 68 -12 23 -31 53 -44 67 -12 14 -53 70 -90 125 -38 55
-85 120 -105 145 -21 25 -61 79 -89 120 -28 41 -105 149 -171 240 -67 91 -160
221 -208 290 -48 69 -105 148 -127 175 -22 28 -51 68 -65 90 -13 22 -51 76
-85 120 -34 44 -68 91 -75 105 -23 45 -128 175 -159 198 -36 26 -77 35 -107
23z m-137 -162 c26 -10 41 -10 86 0 34 9 60 10 71 4 9 -5 35 -37 59 -70 23
-34 70 -99 104 -145 78 -105 216 -295 335 -463 51 -72 110 -153 131 -180 71
-94 132 -178 151 -209 11 -17 61 -87 111 -156 50 -69 107 -147 125 -175 19
-27 54 -70 79 -95 25 -25 56 -63 69 -84 l23 -39 -23 7 c-70 19 -174 27 -209
16 -19 -7 -43 -11 -51 -9 -18 5 -76 78 -185 234 -42 61 -99 139 -127 174 -28
35 -67 88 -86 116 -19 29 -55 80 -80 113 -25 33 -85 117 -135 187 -49 70 -136
191 -193 269 -57 77 -120 166 -139 196 -20 30 -72 100 -117 155 -87 109 -111
149 -100 166 7 13 55 7 101 -12z m-407 0 c24 -9 45 -9 86 1 43 11 59 11 77 1
21 -12 135 -157 207 -264 19 -29 57 -81 84 -115 26 -35 84 -114 127 -175 181
-255 236 -332 269 -378 19 -26 53 -72 75 -103 59 -84 238 -327 321 -439 41
-55 74 -105 74 -113 0 -23 -28 -28 -73 -14 -31 10 -133 13 -389 12 -439 -1
-514 5 -599 46 -141 69 -240 143 -254 189 -5 18 -1 24 20 29 14 3 40 3 58 0
95 -19 126 -18 190 3 83 28 138 64 210 139 52 52 62 70 88 148 32 99 34 122
15 210 -29 137 -141 265 -280 323 -79 33 -80 33 -200 27 -67 -4 -134 -7 -149
-8 -16 0 -34 5 -40 11 -15 15 -10 450 5 469 13 15 35 15 78 1z m-4440 -260
c83 -14 2679 -22 2760 -8 30 5 98 10 150 11 84 1 102 -2 155 -26 33 -15 79
-31 103 -37 50 -11 163 -79 192 -116 11 -14 20 -34 20 -44 0 -16 -8 -19 -41
-19 -33 0 -51 8 -86 36 -42 34 -46 36 -101 30 l-57 -7 -69 56 c-38 30 -74 56
-80 56 -6 1 -40 0 -76 -1 -61 -2 -69 -5 -140 -57 -60 -44 -80 -53 -100 -48
-87 22 -84 23 -165 -61 -41 -44 -75 -85 -75 -92 0 -8 8 -27 17 -43 18 -31 21
-25 -104 -201 -18 -23 -23 -45 -23 -89 0 -54 2 -59 41 -96 22 -21 51 -58 65
-83 22 -39 24 -49 15 -81 -6 -20 -11 -39 -11 -43 0 -12 133 -151 156 -164 20
-11 30 -10 58 3 32 15 37 15 68 -1 18 -9 51 -31 73 -49 60 -48 78 -55 144 -55
58 0 62 2 135 61 l76 60 54 -6 c49 -6 57 -5 97 24 35 26 51 31 84 29 77 -6 51
-53 -73 -130 -36 -23 -72 -38 -91 -38 -17 0 -48 -9 -68 -20 -21 -11 -44 -20
-51 -20 -7 0 -38 -9 -70 -20 -62 -22 -88 -21 -222 7 -62 13 -110 15 -290 8
-294 -11 -1979 -9 -2060 3 -36 5 -111 6 -170 1 -402 -30 -368 -29 -445 -4
-195 66 -236 88 -323 179 -101 106 -183 305 -185 451 -1 71 4 93 41 195 24 63
54 133 67 156 55 94 222 234 279 234 11 0 38 8 60 19 59 26 136 49 171 50 17
0 59 -4 95 -10z m4706 -390 c51 -24 124 -100 154 -159 59 -117 -15 -285 -153
-347 l-62 -28 -925 5 -925 5 -50 33 c-27 19 -69 60 -92 91 -37 51 -43 67 -49
128 -7 76 2 104 58 176 34 42 106 95 146 107 15 4 439 8 942 8 899 2 915 1
956 -19z"/>
<path d="M1833 2476 c-78 -69 -105 -82 -149 -68 -51 15 -90 -4 -155 -77 -57
-64 -66 -89 -49 -130 14 -35 -1 -70 -50 -116 -49 -46 -60 -76 -60 -159 0 -72
1 -76 36 -113 74 -78 76 -82 69 -144 -7 -55 -6 -57 37 -109 24 -29 62 -66 85
-83 41 -29 45 -30 81 -18 47 16 76 4 153 -65 46 -40 56 -45 83 -39 17 4 40 6
51 5 60 -7 78 -2 118 37 77 73 120 90 147 58 25 -30 54 -16 132 63 41 42 78
84 80 92 3 8 -1 31 -9 52 -13 32 -13 40 2 70 10 18 39 54 66 79 l49 45 0 70
-1 69 -60 70 c-69 81 -79 106 -55 146 10 16 15 37 11 48 -7 22 -158 171 -174
171 -7 0 -26 -7 -43 -16 -41 -21 -63 -14 -137 46 -34 27 -65 50 -69 51 -4 0
-37 2 -74 4 -67 3 -68 3 -115 -39z m189 -200 c113 -22 232 -127 265 -234 61
-195 -44 -383 -249 -447 -53 -16 -62 -16 -144 -1 -80 15 -92 20 -153 69 -134
108 -172 260 -105 415 34 78 164 185 245 201 61 12 65 12 141 -3z"/>
<path d="M1865 2026 c-47 -47 -55 -59 -55 -92 0 -33 7 -45 55 -91 40 -39 62
-53 84 -53 44 0 138 84 155 138 6 18 -3 34 -55 87 -82 86 -105 87 -184 11z"/>
<path d="M2440 2410 c0 -23 9 -41 34 -66 l33 -33 899 1 c962 1 933 -1 968 50
9 12 16 36 16 52 l0 29 -68 -6 c-91 -9 -1740 -9 -1819 -1 l-63 7 0 -33z"/>
<path d="M2614 2097 c-25 -14 -17 -64 14 -85 45 -31 61 -33 146 -16 68 14 93
15 156 5 48 -7 137 -9 250 -5 217 7 233 7 455 0 112 -4 208 -2 255 5 61 9 92
8 164 -5 80 -14 92 -14 113 -1 34 23 56 62 50 87 l-6 23 -791 0 c-435 0 -798
-4 -806 -8z"/>
<path d="M2799 1889 c-60 -43 -79 -68 -79 -106 0 -56 93 -143 153 -143 57 0
155 106 143 154 -3 12 -30 46 -60 74 -66 62 -93 66 -157 21z"/>
<path d="M3345 1894 c-44 -30 -72 -60 -86 -93 -22 -53 76 -161 145 -161 54 0
157 95 156 144 -1 42 -108 136 -155 136 -12 0 -39 -12 -60 -26z"/>
<path d="M3910 1904 c-53 -35 -110 -98 -110 -121 0 -28 66 -102 113 -128 44
-23 72 -16 131 36 84 74 83 100 -10 182 -58 50 -85 57 -124 31z"/>
<path d="M2485 1533 c-36 -25 -55 -57 -55 -95 0 -19 4 -20 53 -13 71 10 1788
11 1860 1 53 -8 57 -7 57 11 0 29 -40 84 -75 104 -27 16 -48 17 -220 9 -104
-5 -192 -7 -195 -5 -4 2 -105 4 -226 3 -120 0 -244 0 -274 0 -30 0 -149 0
-265 -1 -265 -2 -278 -1 -467 5 -155 5 -159 4 -193 -19z"/>
<path d="M4779 2023 c-79 -75 -79 -96 -1 -175 78 -78 99 -78 181 -2 51 47 61
62 61 89 0 27 -10 42 -61 89 -81 75 -101 75 -180 -1z"/>
<path d="M6533 2028 c-66 -63 -78 -89 -59 -126 18 -35 113 -112 138 -112 31 0
72 26 111 69 57 63 52 98 -20 167 -75 71 -96 72 -170 2z"/>
</g>
</svg>
