<?xml version="1.0" standalone="no"?>
<!DOCTYPE svg PUBLIC "-//W3C//DTD SVG 20010904//EN"
 "http://www.w3.org/TR/2001/REC-SVG-20010904/DTD/svg10.dtd">
<svg version="1.0" xmlns="http://www.w3.org/2000/svg"
 width="1064.000000pt" height="977.000000pt" viewBox="0 0 1064.000000 977.000000"
 preserveAspectRatio="xMidYMid meet">
<metadata>
Created by potrace 1.14, written by Peter Selinger 2001-2017
</metadata>
<g transform="translate(0.000000,977.000000) scale(0.100000,-0.100000)"
fill="#000000" stroke="none">
<path d="M2528 8681 c-39 -8 -84 -36 -183 -113 -65 -50 -170 -185 -186 -240
-15 -49 -12 -1363 3 -1454 15 -96 5 -133 -44 -157 -32 -16 -45 -17 -95 -7 -35
6 -200 10 -418 10 -202 -1 -383 4 -412 9 -87 17 -143 -11 -186 -94 -13 -26
-20 -58 -20 -90 4 -257 2 -1496 -2 -1550 -5 -61 -3 -75 17 -110 13 -21 43 -53
66 -70 40 -28 49 -30 110 -26 37 2 261 4 497 4 473 0 667 -12 750 -45 27 -11
83 -26 123 -34 49 -8 93 -24 131 -47 32 -19 74 -40 93 -46 121 -40 387 -260
490 -406 20 -27 48 -75 63 -105 15 -30 42 -76 61 -102 67 -95 89 -162 134
-409 14 -76 50 -147 93 -184 47 -41 82 -50 136 -35 61 16 2380 17 2442 0 60
-15 103 2 151 61 56 69 71 107 79 201 11 141 53 244 168 417 106 158 208 275
305 349 34 25 90 71 126 102 78 66 284 171 440 223 90 30 124 36 240 42 125 7
1201 10 1353 4 60 -2 71 0 110 27 24 17 52 48 65 74 21 41 22 53 15 130 -4 47
-6 221 -5 388 3 352 -11 467 -73 600 -96 204 -291 380 -499 449 -123 42 -207
50 -337 33 -78 -11 -103 -11 -128 0 -43 17 -56 63 -42 144 14 81 14 169 -1
256 -16 91 -2 120 92 195 93 74 106 94 87 132 -19 35 -141 153 -159 153 -22 0
-67 -35 -111 -87 -183 -215 -181 -212 -173 -271 4 -26 11 -121 16 -212 5 -91
12 -177 15 -192 4 -15 4 -43 1 -62 -6 -30 -13 -37 -51 -52 -39 -15 -55 -15
-118 -5 -91 15 -337 9 -395 -10 -38 -12 -46 -11 -78 6 -44 23 -50 36 -63 116
-13 77 -56 144 -140 218 -90 78 -125 95 -185 92 -56 -4 -154 -3 -245 1 -54 3
-63 0 -117 -37 -98 -67 -201 -174 -213 -221 -6 -23 -8 -49 -5 -58 11 -30 -6
-85 -31 -102 -37 -24 -200 -21 -234 4 -33 24 -43 65 -30 121 12 49 14 986 3
1181 -8 140 -5 143 115 150 77 5 94 9 115 29 43 40 47 70 37 273 -6 116 -6
200 0 220 27 95 -1 162 -87 204 -49 24 -62 26 -120 20 -70 -7 -3422 -9 -3483
-2 -20 3 -53 1 -73 -3z m1796 -257 c1633 -3 1680 -4 1699 -22 10 -10 23 -38
28 -62 8 -36 6 -49 -12 -86 -11 -25 -29 -49 -39 -54 -29 -16 -2853 -14 -2928
1 -72 15 -96 9 -150 -37 -76 -64 -96 -129 -69 -224 9 -35 11 -254 7 -985 -4
-545 -2 -971 3 -1013 8 -59 6 -80 -7 -115 -46 -120 4 -194 186 -277 81 -36
139 -77 274 -192 122 -103 182 -171 228 -254 20 -38 55 -100 76 -139 22 -38
40 -78 40 -88 0 -51 93 -165 157 -193 28 -12 39 -11 98 7 36 11 71 17 77 13 7
-4 410 -7 897 -6 625 1 904 -2 947 -10 57 -10 65 -10 110 13 34 16 56 36 70
63 21 36 22 51 20 250 -1 142 -6 218 -14 233 -17 30 -15 94 3 120 25 35 75 46
153 34 46 -8 256 -10 682 -6 338 3 647 5 685 4 120 -4 1256 -2 1333 2 71 4 75
3 99 -25 22 -26 24 -35 18 -75 -9 -57 -9 -111 0 -176 6 -42 4 -54 -13 -75 -17
-22 -28 -25 -79 -24 -655 5 -1123 5 -1223 -1 -103 -6 -148 -15 -255 -47 -71
-22 -146 -44 -165 -50 -38 -11 -141 -64 -325 -166 -109 -61 -132 -80 -255
-202 -190 -189 -268 -295 -384 -521 -82 -161 -116 -249 -116 -305 0 -28 -8
-44 -35 -71 l-36 -36 -87 7 c-100 9 -1984 8 -2112 0 -75 -5 -89 -3 -118 15
-39 25 -52 55 -52 119 0 64 -7 83 -92 262 -129 272 -151 304 -348 500 -146
146 -188 182 -255 219 -291 159 -370 195 -478 215 -41 8 -91 22 -113 31 -91
38 -579 56 -1122 42 -57 -2 -66 1 -84 23 -18 22 -19 32 -12 90 10 82 10 534 0
620 -7 57 -6 68 12 90 18 22 27 25 79 22 176 -7 656 -9 703 -2 33 5 74 4 100
-2 142 -32 197 -15 256 79 42 64 52 115 33 169 -9 28 -12 82 -9 184 2 80 3
174 3 210 0 36 -3 418 -5 850 -3 432 -9 808 -12 835 -7 47 -5 54 32 111 57 87
130 132 192 117 14 -4 781 -8 1704 -9z m1433 -490 c38 -24 47 -60 33 -131 -15
-78 -15 -721 0 -805 8 -41 8 -75 0 -115 -14 -78 -13 -458 2 -522 10 -44 9 -56
-7 -91 -28 -63 -103 -91 -137 -52 -9 9 -26 40 -40 67 -42 87 -127 215 -184
279 -91 101 -85 134 32 186 82 36 165 103 184 150 17 42 6 73 -43 125 -61 63
-92 62 -184 -5 -127 -93 -184 -129 -398 -249 -128 -72 -243 -163 -261 -207
-18 -44 -8 -68 54 -127 72 -67 84 -64 193 38 101 95 128 107 166 79 27 -20 43
-47 98 -164 20 -41 60 -104 90 -140 87 -103 97 -121 81 -145 -7 -11 -44 -36
-82 -56 -55 -28 -85 -54 -147 -125 -102 -117 -121 -158 -114 -235 3 -33 14
-76 24 -97 11 -20 38 -71 60 -112 22 -41 73 -138 113 -215 40 -76 92 -168 116
-204 29 -43 44 -77 44 -98 0 -28 -3 -32 -38 -38 -21 -3 -60 -1 -87 6 -64 16
-609 21 -725 7 -111 -13 -157 0 -183 54 -17 35 -17 43 -4 110 10 55 13 155 12
398 l-1 325 -26 57 c-53 115 -123 189 -238 249 l-45 24 -435 0 c-455 1 -520 7
-555 45 -16 18 -17 64 -16 577 0 307 4 640 7 740 5 130 3 203 -6 257 -15 88
-8 141 21 157 15 8 368 11 1233 10 720 0 1225 3 1246 9 45 12 117 4 147 -16z
m960 -1219 c45 -19 81 -19 128 1 48 20 76 13 132 -34 52 -43 93 -107 93 -145
0 -57 -66 -89 -134 -67 -45 15 -231 18 -336 6 -58 -7 -68 -6 -92 14 -30 23
-36 58 -18 104 13 34 84 104 123 121 41 18 60 18 104 0z m-5062 -251 c173 -4
276 -2 332 7 65 9 92 10 123 0 50 -15 54 -29 54 -189 -1 -161 1 -158 -142
-153 -198 7 -556 6 -638 -3 -93 -10 -119 -1 -139 48 -13 31 -18 191 -8 249 7
39 52 59 118 52 28 -4 163 -9 300 -11z m6500 -230 c388 -1 390 -1 445 -25 212
-92 308 -198 372 -409 29 -92 33 -151 14 -188 -19 -37 -48 -42 -168 -30 -95 9
-1007 3 -1095 -8 -49 -5 -55 -4 -83 24 -35 35 -39 77 -16 166 16 60 13 204 -6
318 -9 53 -8 73 2 99 16 39 82 73 120 62 14 -4 201 -8 415 -9z m-1425 -4 c256
-1 506 2 556 6 87 6 90 6 121 -20 37 -31 48 -70 34 -123 -15 -57 -16 -280 -1
-355 15 -77 10 -105 -27 -142 -26 -26 -32 -28 -83 -21 -76 9 -1110 9 -1187 0
-73 -9 -102 4 -123 55 -11 27 -10 49 4 143 21 147 20 210 -5 293 -26 83 -18
118 31 152 32 22 41 24 125 18 50 -3 299 -6 555 -6z m-928 -257 c6 -23 3 -53
-8 -95 -14 -53 -16 -115 -15 -403 2 -314 3 -345 22 -403 23 -69 20 -101 -12
-133 -52 -52 -144 33 -185 172 -19 64 -68 162 -135 275 -27 45 -49 85 -49 89
0 5 -25 50 -55 100 -71 120 -72 146 -10 208 25 25 62 51 83 58 59 19 124 54
178 97 71 56 104 72 143 69 30 -2 36 -6 43 -34z m-2555 -42 c48 -22 153 -24
504 -10 204 8 220 8 275 -11 131 -45 172 -135 154 -333 -5 -56 -10 -118 -10
-137 -1 -89 8 -322 15 -383 7 -58 5 -70 -10 -87 -22 -24 -104 -50 -157 -50
-79 0 -132 54 -187 189 -28 70 -79 138 -235 316 -94 108 -111 123 -184 177
-32 23 -70 54 -87 69 -16 15 -66 47 -110 70 -142 75 -163 113 -101 175 40 40
70 43 133 15z"/>
<path d="M3353 7475 c-11 -8 -35 -37 -53 -66 -29 -44 -33 -58 -30 -102 5 -75
4 -801 -1 -870 -4 -58 -3 -59 37 -97 46 -42 109 -65 158 -56 17 3 162 6 321 7
275 1 293 0 338 -20 59 -26 80 -26 133 -2 112 51 129 176 31 228 -28 14 -68
17 -297 18 -166 0 -287 -4 -323 -11 -67 -13 -114 -5 -142 26 -14 15 -16 29
-11 67 4 26 11 188 15 358 5 171 12 322 16 337 11 40 -11 92 -64 148 -51 54
-86 64 -128 35z"/>
<path d="M9559 5015 c-31 -17 -86 -99 -95 -141 -4 -21 2 -50 20 -93 23 -53 25
-67 16 -100 -12 -45 -47 -72 -93 -73 -18 0 -86 4 -152 9 -155 12 -204 1 -257
-56 -23 -24 -38 -50 -38 -65 0 -36 52 -91 115 -121 52 -26 56 -26 127 -15 48
8 121 10 209 6 73 -4 153 -8 176 -9 78 -3 166 86 163 165 0 18 -2 112 -3 208
-2 195 -7 211 -72 269 -39 34 -74 39 -116 16z"/>
<path d="M1776 4507 c-22 -23 -58 -64 -79 -90 -25 -31 -60 -58 -100 -78 -34
-17 -76 -42 -93 -55 -17 -12 -44 -26 -59 -30 -23 -6 -33 -1 -65 35 -67 73 -73
70 -281 -140 -131 -133 -179 -188 -179 -206 0 -14 17 -42 40 -67 49 -53 51
-82 8 -144 -18 -26 -44 -69 -59 -97 -18 -36 -43 -62 -90 -95 -100 -71 -109
-96 -109 -303 l0 -169 38 -37 c22 -20 60 -51 87 -70 38 -27 54 -48 81 -106 19
-40 46 -87 60 -105 36 -42 34 -72 -10 -120 -65 -73 -62 -79 140 -277 202 -200
203 -200 274 -128 24 25 52 45 61 45 10 0 37 -16 61 -35 24 -19 69 -48 100
-65 36 -19 72 -49 100 -83 65 -82 95 -99 191 -108 132 -12 264 -11 300 5 18 7
64 48 103 90 42 45 87 83 110 92 22 9 57 31 79 48 44 36 78 56 94 56 6 0 36
-23 67 -50 43 -40 60 -49 77 -44 12 4 99 85 194 181 196 198 201 207 137 265
-51 46 -57 62 -40 95 8 16 24 37 36 48 13 11 37 52 55 91 31 69 46 85 133 145
62 43 68 67 68 259 l-1 165 -34 49 c-18 27 -47 56 -63 65 -58 31 -81 55 -104
108 -13 30 -42 76 -64 104 -22 28 -40 55 -40 61 0 19 24 54 61 89 22 20 39 42
39 50 0 8 -81 97 -179 197 -207 210 -212 213 -282 141 -36 -37 -44 -41 -75
-36 -19 3 -52 20 -73 36 -22 17 -65 46 -97 64 -39 22 -77 56 -119 107 -34 41
-74 79 -88 84 -18 7 -53 5 -106 -3 -60 -10 -92 -10 -131 -2 -99 21 -128 16
-174 -32z m417 -518 c157 -34 188 -50 309 -153 63 -54 133 -147 201 -266 55
-96 70 -219 53 -440 -8 -100 -11 -110 -59 -204 -28 -54 -69 -118 -91 -143 -62
-71 -204 -179 -299 -229 -74 -38 -101 -47 -175 -55 -48 -5 -138 -6 -201 -2
-104 6 -120 9 -190 43 -167 82 -297 190 -386 325 -69 106 -72 111 -79 175 -4
30 -16 81 -28 112 -22 62 -21 80 6 238 20 109 48 177 110 264 96 134 211 246
301 293 36 20 283 71 343 72 24 1 108 -13 185 -30z"/>
<path d="M1911 3573 c-63 -22 -202 -159 -231 -226 -25 -57 -23 -127 5 -194 24
-58 157 -186 229 -222 79 -38 105 -39 184 -1 68 32 131 90 204 188 96 128 86
193 -49 333 -102 106 -161 139 -242 138 -31 0 -76 -8 -100 -16z"/>
<path d="M7720 4542 c-26 -8 -51 -35 -95 -102 -40 -62 -46 -66 -117 -93 -48
-18 -88 -41 -109 -63 -44 -45 -71 -44 -125 6 -74 68 -76 67 -283 -140 -115
-115 -181 -188 -181 -200 0 -12 23 -42 50 -69 28 -27 50 -52 50 -55 0 -12 -21
-47 -54 -90 -17 -23 -38 -61 -46 -85 -9 -28 -28 -54 -53 -75 -83 -66 -119
-100 -132 -126 -11 -21 -13 -69 -11 -210 l3 -183 45 -41 c25 -23 62 -54 82
-71 24 -19 45 -50 60 -88 13 -32 39 -75 59 -95 19 -21 37 -44 39 -52 7 -21
-14 -59 -51 -94 -45 -43 -43 -85 7 -128 20 -18 90 -85 156 -150 185 -185 186
-185 263 -113 26 25 53 45 60 45 6 0 33 -18 59 -41 26 -23 61 -47 78 -54 17
-7 47 -20 67 -28 24 -10 49 -35 75 -73 64 -93 76 -99 217 -102 67 -1 138 -3
157 -3 19 0 61 7 93 17 60 18 82 37 143 126 26 36 42 49 84 63 28 9 71 35 96
56 25 21 47 39 50 39 14 0 53 -27 91 -61 43 -39 58 -45 80 -31 6 4 88 82 182
174 149 146 171 171 171 198 0 35 -12 62 -47 104 -28 34 -25 51 23 113 19 24
41 69 50 100 19 64 35 83 101 117 89 44 88 42 90 260 1 185 1 192 -22 227 -13
21 -48 50 -80 68 -31 18 -63 44 -71 59 -8 15 -37 66 -65 115 -27 48 -49 95
-49 104 0 8 18 35 40 59 65 71 65 72 -138 275 -205 205 -206 205 -278 139 -52
-48 -84 -51 -122 -13 -15 16 -63 46 -107 68 -72 36 -83 46 -116 99 -56 93 -55
93 -269 99 -102 2 -192 2 -200 -1z m297 -541 c134 -18 147 -21 230 -66 114
-61 140 -81 194 -149 24 -31 61 -77 82 -102 77 -93 133 -247 142 -391 6 -87 3
-111 -23 -220 -22 -95 -39 -138 -73 -194 -57 -96 -177 -216 -259 -262 -36 -20
-89 -52 -119 -71 -62 -41 -102 -47 -321 -49 -117 -1 -151 1 -175 14 -16 9 -68
36 -115 61 -176 90 -304 218 -389 386 -35 69 -50 176 -51 347 0 152 24 212
163 405 93 130 115 152 195 197 79 44 282 112 337 112 22 0 104 -8 182 -18z"/>
<path d="M7818 3575 c-54 -20 -98 -53 -154 -115 -58 -65 -124 -178 -124 -213
0 -47 148 -240 219 -288 57 -38 142 -63 182 -54 41 9 168 96 212 145 57 62 90
136 91 200 0 65 -30 139 -77 188 -46 49 -141 121 -181 137 -43 18 -119 18
-168 0z"/>
</g>
</svg>
